<svg data-v-423bf9ae="" xmlns="http://www.w3.org/2000/svg" viewBox="0 0 392 90" class="iconLeft"><!----><!----><!----><g data-v-423bf9ae="" id="d243bc10-8ca4-4544-9240-3a43bfd8e79d" fill="white" transform="matrix(5.681818469168412,0,0,5.681818469168412,88.05113862943301,-3.295455871698998)"><path d="M3.39 5.63L8.22 5.63L8.22 3.92L1.19 3.92L1.19 13.58L3.39 13.58L3.39 9.59L7.76 9.59L7.76 7.88L3.39 7.88ZM10.36 3.23C9.66 3.23 9.20 3.67 9.20 4.34C9.20 5.03 9.66 5.46 10.36 5.46C11.06 5.46 11.54 5.03 11.54 4.34C11.54 3.67 11.06 3.23 10.36 3.23ZM11.47 13.58L11.47 6.12L9.27 6.12L9.27 13.58ZM20.33 7.98C20.16 6.68 19.25 5.92 17.68 5.92C16.98 5.92 16.45 6.06 15.95 6.40L15.33 7.29L15.33 6.12L13.13 6.12L13.13 13.58L15.33 13.58L15.33 10.12C15.33 8.22 15.97 7.43 16.84 7.43C17.70 7.43 18.12 7.91 18.17 8.67C18.20 9.04 18.20 9.42 18.20 9.70L18.20 13.58L20.40 13.58L20.40 9.37C20.40 8.76 20.38 8.36 20.33 7.98ZM30.03 5.63L30.03 3.92L21.41 3.92L21.41 5.63L24.63 5.63L24.63 13.58L26.81 13.58L26.81 5.63ZM36.99 9.72C36.99 7.73 35.76 5.92 33.38 5.92C31.01 5.92 29.51 7.63 29.51 9.87C29.51 12.50 31.15 13.78 33.24 13.78C35.06 13.78 36.46 12.87 36.86 11.14L34.69 11.14C34.57 11.84 34.05 12.26 33.28 12.26C32.45 12.26 31.84 11.84 31.71 10.42L36.95 10.42C36.97 10.15 36.99 9.91 36.99 9.72ZM33.28 7.43C34.09 7.43 34.58 7.98 34.71 9.03L31.77 9.03C31.95 7.92 32.49 7.43 33.28 7.43ZM41.57 5.92C39.45 5.92 37.74 7.35 37.74 9.91C37.74 12.45 39.31 13.78 41.38 13.78C43.33 13.78 44.76 12.81 45.05 10.93L42.88 10.93C42.71 11.80 42.18 12.26 41.51 12.26C40.60 12.26 40.00 11.51 40.00 9.77C40.00 8.19 40.59 7.43 41.51 7.43C42.24 7.43 42.76 7.85 42.91 8.88L45.05 8.88C44.94 7.21 43.65 5.92 41.57 5.92ZM53.42 7.98C53.26 6.68 52.35 5.92 50.78 5.92C50.08 5.92 49.55 6.06 49.04 6.40L48.43 7.29L48.43 3.22L46.23 3.22L46.23 13.58L48.43 13.58L48.43 10.12C48.43 8.22 49.07 7.45 49.94 7.43C50.79 7.43 51.21 7.91 51.27 8.67C51.30 9.04 51.30 9.42 51.30 9.70L51.30 13.58L53.49 13.58L53.49 9.37C53.49 8.76 53.48 8.36 53.42 7.98Z"></path></g><!----><g data-v-423bf9ae="" id="029348e0-530e-44ed-a95d-9b44d6f36dba" transform="matrix(1.875,0,0,1.875,-8.781251430511475,-1.875)" stroke="none" fill="white"><path d="M44.9 10.8h-3.3v20.1h-3.9c.8-1.7 1.2-3.7 1.2-5.7 0-4.1-1.8-7.8-4.6-10.3v-4.1H31L38 1l6.9 9.8zM19 39.2L12 49l-7-9.8h3.3V19.1h4.1c-.9 1.8-1.4 3.9-1.4 6 0 4.1 1.8 7.8 4.6 10.3v3.8H19zM23.1 20.4c.3-.3.8-.5 1.5-.5v3.6c-2.4-.8-2.3-2.4-1.5-3.1zM27.6 27.1c.6.5.7 1.7-.1 2.4-.4.3-.9.5-1.6.6v-3.7c.8.2 1.4.5 1.7.7z"></path><path d="M25 13.3c-6.6 0-11.9 5.4-11.9 11.9S18.4 37.1 25 37.1c6.6 0 11.9-5.3 11.9-11.9 0-6.6-5.3-11.9-11.9-11.9zm4.3 17.8c-.9.8-2 1.2-3.4 1.2v1.5h-1.3v-1.5c-1.9-.2-3.6-1-5.1-2.3l1.5-1.8c1.2 1 2.4 1.6 3.6 1.8v-4c-1.6-.4-2.7-.9-3.4-1.5-1.4-1.1-1.6-4 .2-5.6.8-.8 1.9-1.2 3.3-1.3v-1H26v1.1c1.5.1 3 .6 4.3 1.6l-1.4 1.9c-.9-.7-1.9-1-3-1.2v3.9h.1c1.6.4 2.8.9 3.5 1.5 1.4 1.1 1.6 4-.2 5.7z"></path></g><!----></svg>